<svg width="22" height="22" viewBox="0 0 22 22" fill="none" xmlns="http://www.w3.org/2000/svg">
<path d="M4.8665 13.4016V1.1088C4.8665 0.817184 4.73756 0.537512 4.50805 0.331309C4.27854 0.125106 3.96725 0.00926249 3.64268 0.00926249C3.3181 0.00926249 3.00681 0.125106 2.7773 0.331309C2.54779 0.537512 2.41885 0.817184 2.41885 1.1088V13.4016C1.71008 13.6327 1.09769 14.0543 0.664925 14.6091C0.232158 15.1638 0 15.8249 0 16.5023C0 17.1798 0.232158 17.8408 0.664925 18.3955C1.09769 18.9503 1.71008 19.3719 2.41885 19.603V20.9005C2.41885 21.1921 2.54779 21.4718 2.7773 21.678C3.00681 21.8842 3.3181 22 3.64268 22C3.96725 22 4.27854 21.8842 4.50805 21.678C4.73756 21.4718 4.8665 21.1921 4.8665 20.9005V19.603C5.57528 19.3719 6.18766 18.9503 6.62043 18.3955C7.05319 17.8408 7.28535 17.1798 7.28535 16.5023C7.28535 15.8249 7.05319 15.1638 6.62043 14.6091C6.18766 14.0543 5.57528 13.6327 4.8665 13.4016ZM22 12.1042C21.9979 11.4236 21.7615 10.7603 21.3233 10.2052C20.8851 9.65008 20.2665 9.23032 19.5524 9.00347V1.1088C19.5524 0.817184 19.4234 0.537512 19.1939 0.331309C18.9644 0.125106 18.6531 0.00926249 18.3285 0.00926249C18.004 0.00926249 17.6927 0.125106 17.4632 0.331309C17.2337 0.537512 17.1047 0.817184 17.1047 1.1088V9.00347C16.3959 9.2346 15.7835 9.65619 15.3508 10.2109C14.918 10.7657 14.6859 11.4267 14.6859 12.1042C14.6859 12.7816 14.918 13.4426 15.3508 13.9974C15.7835 14.5521 16.3959 14.9737 17.1047 15.2049V20.9005C17.1047 21.1921 17.2337 21.4718 17.4632 21.678C17.6927 21.8842 18.004 22 18.3285 22C18.6531 22 18.9644 21.8842 19.1939 21.678C19.4234 21.4718 19.5524 21.1921 19.5524 20.9005V15.2049C20.2665 14.978 20.8851 14.5583 21.3233 14.0031C21.7615 13.448 21.9979 12.7847 22 12.1042ZM14.6571 3.30787C14.659 2.70274 14.4755 2.1088 14.1269 1.59106C13.7782 1.07331 13.2778 0.651715 12.6803 0.372403C12.0828 0.0930911 11.4113 -0.0331706 10.7393 0.00743622C10.0672 0.048043 9.4206 0.253954 8.87012 0.602633C8.31963 0.951312 7.88651 1.42932 7.61816 1.98435C7.3498 2.53938 7.25655 3.15004 7.34861 3.74949C7.44068 4.34894 7.71451 4.91409 8.14013 5.38309C8.56575 5.85209 9.12677 6.20685 9.76178 6.40857V20.9005C9.76178 21.1921 9.89072 21.4718 10.1202 21.678C10.3497 21.8842 10.661 22 10.9856 22C11.3102 22 11.6215 21.8842 11.851 21.678C12.0805 21.4718 12.2094 21.1921 12.2094 20.9005V6.40857C12.9236 6.18172 13.5422 5.76196 13.9804 5.20684C14.4186 4.65173 14.6549 3.98842 14.6571 3.30787Z" fill="black" fill-opacity="0.5"/>
</svg>
