<svg width="53" height="42" viewBox="0 0 53 42" fill="none" xmlns="http://www.w3.org/2000/svg">
<path d="M17.25 31.5V12.341C17.2499 11.9338 17.385 11.5381 17.6342 11.2161C17.8833 10.894 18.2324 10.6638 18.6265 10.5617C19.0207 10.4596 19.4376 10.4912 19.8118 10.6517C20.1861 10.8122 20.4963 11.0925 20.694 11.4485L31.306 30.5515C31.5037 30.9075 31.8139 31.1878 32.1882 31.3483C32.5624 31.5088 32.9793 31.5404 33.3735 31.4383C33.7676 31.3362 34.1167 31.106 34.3658 30.7839C34.615 30.4619 34.7501 30.0662 34.75 29.659V10.5" stroke="black" stroke-width="3" stroke-linecap="round" stroke-linejoin="round"/>
<path d="M13.75 17.5H38.25" stroke="black" stroke-width="3" stroke-linecap="round" stroke-linejoin="round"/>
<path d="M13.75 24.5H38.25" stroke="black" stroke-width="3" stroke-linecap="round" stroke-linejoin="round"/>
<path d="M1.40625 22.0625C1.40625 20.1562 1.66016 18.3828 2.16797 16.7422C2.67578 15.1016 3.375 13.7109 4.26562 12.5703C5.16406 11.4297 6.16016 10.6328 7.25391 10.1797L8.00391 12.125C6.91016 12.9297 6.0625 14.1875 5.46094 15.8984C4.86719 17.6016 4.56641 19.6016 4.55859 21.8984V22.4141C4.55859 24.7656 4.85547 26.8047 5.44922 28.5312C6.05078 30.2578 6.90234 31.5234 8.00391 32.3281L7.25391 34.2734C6.17578 33.8359 5.17969 33.0352 4.26562 31.8711C3.35938 30.7148 2.66016 29.332 2.16797 27.7227C1.67578 26.1133 1.42188 24.4023 1.40625 22.5898V22.0625ZM51.6797 22.3906C51.6797 24.2266 51.4102 25.9688 50.8711 27.6172C50.332 29.2656 49.5859 30.6797 48.6328 31.8594C47.6875 33.0469 46.6641 33.8516 45.5625 34.2734L44.8125 32.3281C45.8984 31.5156 46.7383 30.2656 47.332 28.5781C47.9258 26.8906 48.2344 24.9492 48.2578 22.7539V22.0391C48.2578 19.6875 47.957 17.6484 47.3555 15.9219C46.7617 14.1953 45.9141 12.9297 44.8125 12.125L45.5625 10.1797C46.6562 10.6094 47.6719 11.4062 48.6094 12.5703C49.5547 13.7266 50.2969 15.1211 50.8359 16.7539C51.3828 18.3789 51.6641 20.0859 51.6797 21.875V22.3906Z" fill="black"/>
</svg>
