<svg width="15" height="24" viewBox="0 0 15 24" fill="none" xmlns="http://www.w3.org/2000/svg">
<path d="M13.3333 0H1.66667C1.22464 0 0.800716 0.180612 0.488156 0.502103C0.175595 0.823594 0 1.25963 0 1.71429V22.2857C0 22.7404 0.175595 23.1764 0.488156 23.4979C0.800716 23.8194 1.22464 24 1.66667 24H13.3333C13.7754 24 14.1993 23.8194 14.5118 23.4979C14.8244 23.1764 15 22.7404 15 22.2857V1.71429C15 1.25963 14.8244 0.823594 14.5118 0.502103C14.1993 0.180612 13.7754 0 13.3333 0V0ZM8.33333 22.2857H6.66667V20.5714H8.33333V22.2857ZM1.66667 18.8571V1.71429H13.3333V18.8571H1.66667Z" fill="black" fill-opacity="0.5"/>
</svg>
